<?xml version="1.0" encoding="UTF-8"?>
<svg xmlns="http://www.w3.org/2000/svg" viewBox="0 0 876.07 905.79">
<defs>
<style>.d{fill:#000;}.e{stroke-width:10px;}.e,.f{fill:none;stroke:#000;stroke-linecap:round;stroke-linejoin:round;}.g{fill:#592415;}.f{stroke-width:8px;}</style>
</defs><g id="a"/><g id="b"><g id="c"><g><g><path class="g" d="M445.31,437.2h17.8l-26.42,137.06h-18.35l-26.42-137.06h17.8l17.8,92.29,17.8-92.29Z"/><path class="g" d="M502.56,437.57v136.33h-18.17v-136.33h18.17Z"/><path class="g" d="M555.4,437.39l26.05,86.97v-87.15h18.35v136.69h-3.49v.18h-17.8v-.18h-.18l-.18-1.28-25.87-93.03v94.49h-18.35v-136.69h21.47Z"/><path class="g" d="M664.57,576.65c-8.81,0-15.66-1.5-20.55-4.5-4.89-3-8.5-7.43-10.83-13.3-2.33-5.87-3.73-13.21-4.22-22.02-.49-8.56-.73-18.68-.73-30.37s.24-21.8,.73-30.37c.49-8.81,1.89-16.15,4.22-22.02,2.32-5.87,5.93-10.3,10.83-13.3,4.89-3,11.74-4.5,20.55-4.5s15.66,1.5,20.55,4.5c4.89,3,8.5,7.43,10.83,13.3,2.32,5.87,3.73,13.21,4.22,22.02,.49,8.56,.73,18.69,.73,30.37s-.25,21.8-.73,30.37c-.49,8.81-1.9,16.15-4.22,22.02-2.33,5.87-5.93,10.31-10.83,13.3-4.89,3-11.74,4.5-20.55,4.5Zm0-122.2c-4.04,0-7.22,1.01-9.54,3.03-2.33,2.02-4.04,5.29-5.14,9.82-1.1,4.53-1.77,9.11-2.02,13.76-.37,6.97-.55,15.44-.55,25.41s.18,18.44,.55,25.41c.24,7.09,.92,12.29,2.02,15.6,1.1,3.3,2.81,5.96,5.14,7.98,2.32,2.02,5.5,3.03,9.54,3.03s7.22-1.01,9.54-3.03c2.32-2.02,4.04-4.68,5.14-7.98,1.1-3.3,1.77-8.5,2.02-15.6,.37-6.97,.55-15.44,.55-25.41s-.18-18.44-.55-25.41c-.25-4.65-.92-9.23-2.02-13.76-1.1-4.52-2.82-7.8-5.14-9.82-2.33-2.02-5.5-3.03-9.54-3.03Z"/><path class="g" d="M727.68,485.83c-1.83-3.42-2.88-6.97-3.12-10.64-.37-8.19,.79-15.23,3.49-21.1,2.69-5.87,6.48-10.3,11.38-13.3,4.89-3,11.74-4.5,20.55-4.5,8.07,0,14.31,.98,18.71,2.94,4.4,1.96,8.38,5.41,11.93,10.37,3.55,4.95,5.01,14.28,4.4,27.98h-19.45c0-2.08-.12-5.57-.37-10.46-.25-4.89-1.83-8.23-4.77-10-2.94-1.77-6.18-2.75-9.72-2.94-3.55-.18-6.73,.83-9.54,3.03-2.81,2.2-4.59,5.93-5.32,11.19-.73,5.26,.98,10.09,5.14,14.49,4.16,4.4,9.23,8.38,15.23,11.93,9.42,5.99,16.67,11.83,21.74,17.52,5.07,5.69,7.67,14.04,7.8,25.04,.37,8.2-.8,15.23-3.49,21.1-2.69,5.87-6.49,10.31-11.38,13.3-4.89,3-11.74,4.5-20.55,4.5-8.07,0-14.31-.98-18.72-2.94-4.4-1.96-8.38-5.41-11.93-10.37-3.55-4.95-5.02-14.28-4.4-27.98h19.45c0,2.08,.12,5.57,.37,10.46,.24,4.89,2.02,8.35,5.32,10.37,3.3,2.02,6.79,2.91,10.46,2.66,3.67-.24,6.67-1.41,8.99-3.49,1.96-1.59,3.27-3.73,3.94-6.42,.67-2.69,1.07-5.32,1.19-7.89,.12-2.57-.73-6.05-2.57-10.46-1.83-4.4-6.48-9.23-13.94-14.5-7.46-5.26-12.82-9.05-16.05-11.38-3.24-2.32-6.15-5.07-8.72-8.26-2.45-3.06-4.47-6.48-6.05-10.28Z"/></g><g><path class="g" d="M316.91,585.11c8.16,0,14.33,1.06,18.5,3.16,4.17,2.11,7.31,5.25,9.42,9.42,2.11,4.17,3.43,9.4,3.97,15.67,.54,6.28,.81,13.59,.81,21.93,0,9.15-.25,16.91-.74,23.28-.49,6.37-1.75,11.53-3.77,15.47-2.02,3.95-5.07,6.82-9.15,8.61-4.08,1.8-10.11,2.69-18.1,2.69h-18.03v-100.24h17.09Zm-3.9,13.46v73.33h4.98c4.58,0,7.96-.67,10.16-2.02,2.2-1.35,3.83-3.5,4.91-6.46s1.77-6.77,2.08-11.44c.31-4.66,.47-10.31,.47-16.95,0-7-.13-12.67-.4-17.02-.27-4.35-.94-8-2.02-10.96s-2.8-5.11-5.18-6.46c-2.38-1.34-6.03-2.02-10.96-2.02h-4.04Z"/><path class="g" d="M407.73,585.11v13.19h-25.83v27.45h25.83v13.19h-25.83v33.1h25.83v12.92h-39.15v-99.83h39.15Z"/></g><g><path class="g" d="M421.45,655.39c.65-11.81,2.54-21.65,5.66-29.52,3.11-7.87,7.95-13.82,14.51-17.84,6.56-4.02,15.74-6.03,27.55-6.03,7.54,0,14.27,1.31,20.17,3.94,5.9,2.62,11.23,7.26,15.99,13.9,4.75,6.64,6.72,19.97,5.9,39.98h-26.08c0-5.57-.33-11.11-.98-16.61-.66-5.49-2.79-9.67-6.4-12.55-3.61-2.87-6.48-4.3-8.61-4.3-5.41,0-9.68,1.35-12.79,4.06-3.12,2.71-5.08,7.55-5.9,14.51-.82,6.97-1.23,12.67-1.23,17.1v68.14c.33,9.51,.82,16.48,1.48,20.91,.65,4.43,2.54,8,5.66,10.7,3.11,2.71,7.38,4.06,12.79,4.06,2.13,0,4.92-.53,8.36-1.6,3.44-1.06,5.62-3.73,6.52-8,.9-4.26,1.31-9.43,1.23-15.5-.08-6.07-.12-10.49-.12-13.28h26.81c1.31,20.17-.29,34.36-4.8,42.56-4.51,8.2-10.09,13.62-16.73,16.24-6.64,2.62-13.74,3.94-21.28,3.94-11.81,0-21-2.01-27.55-6.03-6.56-4.02-11.4-9.96-14.51-17.84-3.12-7.87-5-17.71-5.66-29.52v-81.43Z"/><path class="g" d="M572.74,719.11c.33,12.14,1.23,21.08,2.71,26.81,1.48,5.74,3.77,10.17,6.89,13.28,3.11,3.12,7.38,4.67,12.79,4.67s9.67-1.56,12.79-4.67,5.41-7.54,6.89-13.28c1.48-5.74,2.38-14.68,2.71-26.81v-115.62h25.34v132.35c-.66,11.81-2.54,21.65-5.66,29.52-3.12,7.87-7.96,13.82-14.51,17.83-6.56,4.02-15.75,6.03-27.55,6.03s-21-2.01-27.55-6.03c-6.56-4.02-11.4-9.96-14.51-17.83-3.12-7.87-5-17.71-5.66-29.52v-132.35h25.58l-.25,115.62Z"/><path class="g" d="M703.86,710.99l-34.19-107.5h24.85l21.16,72.57,21.16-72.57h24.85l-33.7,106.27v77.25h-24.11v-76.02Z"/><path class="g" d="M827.36,790.2c-11.81,0-21-2.01-27.55-6.03-6.56-4.02-11.4-9.96-14.51-17.84-3.12-7.87-5-17.71-5.66-29.52-.66-11.48-.98-25.05-.98-40.71s.33-29.23,.98-40.71c.65-11.81,2.54-21.65,5.66-29.52,3.11-7.87,7.95-13.82,14.51-17.84,6.56-4.02,15.75-6.03,27.55-6.03s20.99,2.01,27.55,6.03c6.56,4.02,11.4,9.96,14.51,17.84,3.11,7.87,5,17.71,5.66,29.52,.65,11.48,.98,25.05,.98,40.71s-.33,29.24-.98,40.71c-.66,11.81-2.54,21.65-5.66,29.52-3.12,7.87-7.96,13.82-14.51,17.84-6.56,4.02-15.74,6.03-27.55,6.03Zm0-163.84c-5.41,0-9.68,1.35-12.79,4.06-3.12,2.71-5.41,7.1-6.89,13.16-1.48,6.07-2.38,12.22-2.71,18.45-.49,9.35-.74,20.71-.74,34.07s.25,24.72,.74,34.07c.33,9.51,1.23,16.48,2.71,20.91,1.48,4.43,3.77,8,6.89,10.7,3.11,2.71,7.38,4.06,12.79,4.06s9.68-1.35,12.79-4.06c3.11-2.71,5.41-6.27,6.89-10.7,1.48-4.43,2.38-11.4,2.71-20.91,.49-9.35,.74-20.7,.74-34.07s-.25-24.72-.74-34.07c-.33-6.23-1.23-12.38-2.71-18.45-1.48-6.07-3.77-10.46-6.89-13.16-3.12-2.71-7.38-4.06-12.79-4.06Z"/></g><g><g><path class="e" d="M221.2,478.15C-18.85,434.96,2.01,94.15,8.39,27.85c.61-6.33,5.93-11.15,12.29-11.15"/><path class="e" d="M262.21,478.15C497.82,434.96,477.35,94.15,471.09,27.85c-.6-6.33-5.82-11.15-12.07-11.15"/><path class="e" d="M187.18,471.27c24.87,15.76,63.24,81.17,56.91,122.26-.29,1.89,.05,2.15,0,4.06v181.06c.02,2.56-1.37,8.1-2.14,10.55-3,9.55-12.97,30.86-22.54,34.59"/><path class="e" d="M289.62,477.15s-29.36,75.03-23.21,118.21c.16,1.14,.28,2.29,.3,3.44l.17,176.67c0,8.24,1.16,16.43,3.47,24.34,3.16,10.81,8.4,24.33,15.37,27.04"/><path class="e" d="M237.33,795.03s-96.75,7.23-126.6,23.89c-40.61,22.67-21.35,43.94-2.78,56.62,12.48,8.52,28.34,14.45,42.34,16.58,24.55,3.74,86.73,12.35,142.94,6.92"/><path class="g" d="M62.24,237.2h.04c6.93-2.35,15.05-4.15,24.28-5.41,58.75-8.02,115.49,19.98,172.11,30.35,34.47,6.32,70.77,13.75,103.84,2.14,11.44-4.02,22.17-10.24,34.06-12.61,11.89-2.37,26,.23,32.64,10.38,5.42,8.29,4.43,19.12,2.5,28.84-15.79,79.25-92.77,161.8-174.42,173.27-76.39,10.73-143.42-58.42-183.6-115.26-21.19-29.97-67.06-92.91-11.44-111.69Z"/><path class="d" d="M274.93,799.15c4.89,.03,9.77,.2,14.65,.55,2.41,.17,4.82,.39,7.23,.64,1.14,.12,2.29,.25,3.43,.39,.51,.06,1.02,.13,1.53,.19,.32,.04,.64,.08,.96,.12,.38,.05,.26,.03-.37-.05,.19,.03,.38,.05,.58,.08,10.22,1.43,20.33,3.54,30.35,6.02,10.08,2.5,20.15,5.19,29.96,8.59,4.51,1.56,8.97,3.24,13.39,5.03,.52,.21,1.04,.42,1.55,.64,.23,.09,.45,.19,.68,.28,1.12,.46-.72-.31-.02,0,1.03,.44,2.06,.88,3.08,1.34,1.85,.82,3.68,1.68,5.49,2.59,1.65,.83,3.26,1.72,4.82,2.7,1.1,.69,2.19,1.41,3.25,2.16,.23,.16,.46,.33,.69,.5-.01-.01,1.1,.82,.51,.37s.49,.39,.48,.38c.32,.26,.64,.52,.96,.79,1.84,1.55,3.59,3.24,5.15,5.07,.2,.23,.39,.47,.59,.71,.42,.49-.09,.22-.11-.16,.02,.31,.76,1.05,.92,1.29,.6,.88,1.14,1.8,1.62,2.76,.12,.24,.21,.5,.35,.73,.35,.6-.43-1.18-.07-.17,.15,.44,.32,.87,.45,1.31s.24,.87,.33,1.31c.03,.14,.04,.44,.11,.58-.48-1.03-.08-.76-.04-.18,.04,.48,.05,.95,.03,1.43,0,.19-.03,.38-.04,.57-.03,.82,.04-.4,.07-.48-.38,.84-.47,1.93-.79,2.82-.15,.42-.31,.84-.48,1.26-.09,.23-.2,.45-.28,.68,.02-.07,.5-1.14,.16-.39-.39,.86-.79,1.71-1.23,2.55-.8,1.5-1.71,2.9-2.69,4.28-.65,.92,.7-.86-.13,.18-.26,.32-.52,.64-.79,.95-.58,.67-1.18,1.32-1.81,1.95-1.33,1.34-2.75,2.59-4.22,3.76l-.25,.2c-.33,.26-.33,.26,0,0l.25-.19c-.17,.13-.34,.26-.52,.39-.35,.27-.71,.53-1.06,.79-.94,.68-1.89,1.34-2.85,1.99-2.04,1.37-4.12,2.68-6.22,3.95s-4.17,2.59-6.34,3.72c-.78,.41-1.57,.78-2.37,1.13-.18,.08-.6,.17-.73,.31,.33-.38,.85-.35,.29-.13s-1.16,.47-1.75,.69c-4.44,1.7-9,3.1-13.55,4.45-9.38,2.78-18.76,5.27-28.42,6.91-2.7,.46-5.4,.87-8.11,1.25-.29,.04-.57,.08-.86,.12,1.07-.15,.09-.01-.18,.02-.65,.08-1.29,.17-1.94,.25-1.43,.18-2.87,.35-4.31,.51-5.25,.58-10.5,1.05-15.77,1.42-2.44,.17-4.87,.31-7.31,.44-2.61,.13-5.13,2.2-5,5,.12,2.59,2.2,5.14,5,5,21.6-1.11,43.16-3.69,63.99-9.66,4.72-1.35,9.43-2.72,14.09-4.28,4.34-1.45,8.78-2.99,12.78-5.24,8.1-4.58,16.65-9.62,23.1-16.44,2.64-2.8,4.96-5.98,6.69-9.42,1.96-3.89,3.88-8.29,3.54-12.74-.82-10.86-9.79-19.2-18.29-24.91-7.52-5.05-16.21-8.39-24.62-11.62-9.61-3.69-19.39-6.67-29.32-9.35-20.57-5.53-41.53-9.74-62.86-10.54-2.46-.09-4.92-.14-7.38-.15-2.62-.01-5.12,2.31-5,5s2.2,4.98,5,5h0Z"/></g><ellipse class="f" cx="237.53" cy="21.17" rx="230.83" ry="17.17"/></g></g></g></g></svg>